# xmcd
#
# Track frame offsets:
# 150
# 20496
# 40293
# 61209
# 87556
# 114040
# 117946
# 137006
# 154946
# 156466
# 177380
#
# Disc length: 2612 seconds
#
# Revision: 0
# Processed by: cddbd v1.5.2PL0 Copyright (c) Steve Scherf et al.
# Submitted via: Audion 3.0.2 (http://www.panic.com/audion/)
#
DISCID=900a320b
DTITLE=Mark Eitzel Silverlake Lounge, LA 28.11.06 - Mark Eitzel Silverlake Lounge, LA 28.11.06
DYEAR=1900
DGENRE=
TTITLE0=1
TTITLE1=2
TTITLE2=3
TTITLE3=4
TTITLE4=5
TTITLE5=6
TTITLE6=7
TTITLE7=8
TTITLE8=9
TTITLE9=10
TTITLE10=11
EXTD=
EXTT0=
EXTT1=
EXTT2=
EXTT3=
EXTT4=
EXTT5=
EXTT6=
EXTT7=
EXTT8=
EXTT9=
EXTT10=
PLAYORDER=
